# xmcd
#
# Track frame offsets:
#	150
#	19491
#	36568
#	55493
#	89566
#	108765
#	146633
#	169482
#	189273
#	215171
#	234449
#	256025
#	275183
#	305034
#
# Disc length: 4394 seconds
#
# Revision: 1
# Processed by: cddbd v1.5.2PL0 Copyright (c) Steve Scherf et al.
# Submitted via: audiograbber 1.83.01
#
DISCID=da11280e
DTITLE=Anthony Bourdain - Geständinsse eines Küchenchefs [CD 3 von 5)
DYEAR=2006
DGENRE=Hörbuch
TTITLE0=Kapitel  1
TTITLE1=Kapitel 2
TTITLE2=Kapitel  3
TTITLE3=Kapitel  4
TTITLE4=Kapitel  5
TTITLE5=Kapitel  6
TTITLE6=Kapitel  7
TTITLE7=Kapitel  8
TTITLE8=Kapitel  9
TTITLE9=Kapitel 10
TTITLE10=Kapitel 11
TTITLE11=Kapitel 12
TTITLE12=Kapitel 13
TTITLE13=Kapitel 14
EXTD=
EXTT0=
EXTT1=
EXTT2=
EXTT3=
EXTT4=
EXTT5=
EXTT6=
EXTT7=
EXTT8=
EXTT9=
EXTT10=
EXTT11=
EXTT12=
EXTT13=
PLAYORDER=
